<?xml version="1.0" encoding="UTF-8"?>
<svg viewBox="0 0 700 400" version="1.1"
xmlns="http://www.w3.org/2000/svg" xmlns:xlink="http://www.w3.org/1999/xlink">

<line x1="100" y1="300.5" x2="80" y2="300.5" style="stroke:#444;stroke-width:1" />
<text text-anchor="end" x="75" y="303" style="font-family: Neue Frutiger 45; font-size: 12; fill: #444; letter-spacing:0; ">0</text>
<line x1="100" y1="288.5" x2="90" y2="288.5" style="stroke:#444;stroke-width:1" />
<line x1="100" y1="275.5" x2="80" y2="275.5" style="stroke:#444;stroke-width:1" />
<text text-anchor="end" x="75" y="278" style="font-family: Neue Frutiger 45; font-size: 12; fill: #444; letter-spacing:0; ">50</text>
<line x1="100" y1="262.5" x2="90" y2="262.5" style="stroke:#444;stroke-width:1" />
<line x1="100" y1="250.5" x2="80" y2="250.5" style="stroke:#444;stroke-width:1" />
<text text-anchor="end" x="75" y="253" style="font-family: Neue Frutiger 45; font-size: 12; fill: #444; letter-spacing:0; ">100</text>
<line x1="100" y1="238.5" x2="90" y2="238.5" style="stroke:#444;stroke-width:1" />
<line x1="100" y1="225.5" x2="80" y2="225.5" style="stroke:#444;stroke-width:1" />
<text text-anchor="end" x="75" y="228" style="font-family: Neue Frutiger 45; font-size: 12; fill: #444; letter-spacing:0; ">150</text>
<line x1="100" y1="212.5" x2="90" y2="212.5" style="stroke:#444;stroke-width:1" />
<line x1="100" y1="200.5" x2="80" y2="200.5" style="stroke:#444;stroke-width:1" />
<text text-anchor="end" x="75" y="203" style="font-family: Neue Frutiger 45; font-size: 12; fill: #444; letter-spacing:0; ">200</text>
<line x1="100" y1="188.5" x2="90" y2="188.5" style="stroke:#444;stroke-width:1" />
<line x1="100" y1="175.5" x2="80" y2="175.5" style="stroke:#444;stroke-width:1" />
<text text-anchor="end" x="75" y="178" style="font-family: Neue Frutiger 45; font-size: 12; fill: #444; letter-spacing:0; ">250</text>
<line x1="100" y1="162.5" x2="90" y2="162.5" style="stroke:#444;stroke-width:1" />
<line x1="100" y1="150.5" x2="80" y2="150.5" style="stroke:#444;stroke-width:1" />
<text text-anchor="end" x="75" y="153" style="font-family: Neue Frutiger 45; font-size: 12; fill: #444; letter-spacing:0; ">300</text>
<line x1="100.5" y1="300" x2="100.5" y2="320" style="stroke:#444;stroke-width:1" />
<text text-anchor="middle" x="100" y="335" style="font-family: Neue Frutiger 45; font-size: 12; fill: #444; letter-spacing:0; ">0</text>
<line x1="140.5" y1="300" x2="140.5" y2="310" style="stroke:#444;stroke-width:1" />
<line x1="180.5" y1="300" x2="180.5" y2="320" style="stroke:#444;stroke-width:1" />
<text text-anchor="middle" x="180" y="335" style="font-family: Neue Frutiger 45; font-size: 12; fill: #444; letter-spacing:0; ">80</text>
<line x1="220.5" y1="300" x2="220.5" y2="310" style="stroke:#444;stroke-width:1" />
<line x1="260.5" y1="300" x2="260.5" y2="320" style="stroke:#444;stroke-width:1" />
<text text-anchor="middle" x="260" y="335" style="font-family: Neue Frutiger 45; font-size: 12; fill: #444; letter-spacing:0; ">160</text>
<line x1="300.5" y1="300" x2="300.5" y2="310" style="stroke:#444;stroke-width:1" />
<line x1="340.5" y1="300" x2="340.5" y2="320" style="stroke:#444;stroke-width:1" />
<text text-anchor="middle" x="340" y="335" style="font-family: Neue Frutiger 45; font-size: 12; fill: #444; letter-spacing:0; ">240</text>
<line x1="380.5" y1="300" x2="380.5" y2="310" style="stroke:#444;stroke-width:1" />
<line x1="420.5" y1="300" x2="420.5" y2="320" style="stroke:#444;stroke-width:1" />
<text text-anchor="middle" x="420" y="335" style="font-family: Neue Frutiger 45; font-size: 12; fill: #444; letter-spacing:0; ">320</text>
<line x1="460.5" y1="300" x2="460.5" y2="310" style="stroke:#444;stroke-width:1" />
<line x1="500.5" y1="300" x2="500.5" y2="320" style="stroke:#444;stroke-width:1" />
<text text-anchor="middle" x="500" y="335" style="font-family: Neue Frutiger 45; font-size: 12; fill: #444; letter-spacing:0; ">400</text>
<line x1="540.5" y1="300" x2="540.5" y2="310" style="stroke:#444;stroke-width:1" />
<line x1="580.5" y1="300" x2="580.5" y2="320" style="stroke:#444;stroke-width:1" />
<text text-anchor="middle" x="580" y="335" style="font-family: Neue Frutiger 45; font-size: 12; fill: #444; letter-spacing:0; ">480</text>
<text text-anchor="middle" x="350" y="80" style="font-family: Neue Frutiger 45; font-size: 22; fill: #444; letter-spacing:3; ">QUADRUPOLE MOMENTUM LOSSES</text>
<text text-anchor="middle" x="350" y="102" style="font-family: Neue Frutiger 45; font-size: 13; fill: #444; letter-spacing:1; ">19,890 MUONS · 10 × 10 MM COLLIMATORS</text>
<text text-anchor="middle" x="350" y="360" style="font-family: Neue Frutiger 65; font-size: 13; fill: #444; letter-spacing:1; ">Momentum loss (−MeV)</text>
<text text-anchor="middle" x="80" y="120" style="font-family: Neue Frutiger 65; font-size: 13; fill: #444; letter-spacing:1; ">Collisions</text>
<rect x="100" y="256" width="2" height="44" style="fill: #ff60a9;" />
<rect x="102" y="190" width="2" height="110" style="fill: #ff60a9;" />
<rect x="104" y="199" width="2" height="101" style="fill: #ff60a9;" />
<rect x="106" y="214" width="2" height="86" style="fill: #ff60a9;" />
<rect x="108" y="242" width="2" height="58" style="fill: #ff60a9;" />
<rect x="110" y="273" width="2" height="27" style="fill: #ff60a9;" />
<rect x="112" y="267" width="2" height="33" style="fill: #ff60a9;" />
<rect x="114" y="266" width="2" height="34" style="fill: #ff60a9;" />
<rect x="116" y="271" width="2" height="29" style="fill: #ff60a9;" />
<rect x="118" y="270" width="2" height="30" style="fill: #ff60a9;" />
<rect x="120" y="264" width="2" height="36" style="fill: #ff60a9;" />
<rect x="122" y="253" width="2" height="47" style="fill: #ff60a9;" />
<rect x="124" y="250" width="2" height="50" style="fill: #ff60a9;" />
<rect x="126" y="244" width="2" height="56" style="fill: #ff60a9;" />
<rect x="128" y="241" width="2" height="59" style="fill: #ff60a9;" />
<rect x="130" y="238" width="2" height="62" style="fill: #ff60a9;" />
<rect x="132" y="228" width="2" height="72" style="fill: #ff60a9;" />
<rect x="134" y="234" width="2" height="66" style="fill: #ff60a9;" />
<rect x="136" y="242" width="2" height="58" style="fill: #ff60a9;" />
<rect x="138" y="236" width="2" height="64" style="fill: #ff60a9;" />
<rect x="140" y="243" width="2" height="57" style="fill: #ff60a9;" />
<rect x="142" y="240" width="2" height="60" style="fill: #ff60a9;" />
<rect x="144" y="236" width="2" height="64" style="fill: #ff60a9;" />
<rect x="146" y="238" width="2" height="62" style="fill: #ff60a9;" />
<rect x="148" y="236" width="2" height="64" style="fill: #ff60a9;" />
<rect x="150" y="254" width="2" height="46" style="fill: #ff60a9;" />
<rect x="152" y="238" width="2" height="62" style="fill: #ff60a9;" />
<rect x="154" y="252" width="2" height="48" style="fill: #ff60a9;" />
<rect x="156" y="256" width="2" height="44" style="fill: #ff60a9;" />
<rect x="158" y="246" width="2" height="54" style="fill: #ff60a9;" />
<rect x="160" y="244" width="2" height="56" style="fill: #ff60a9;" />
<rect x="162" y="244" width="2" height="56" style="fill: #ff60a9;" />
<rect x="164" y="254" width="2" height="46" style="fill: #ff60a9;" />
<rect x="166" y="249" width="2" height="51" style="fill: #ff60a9;" />
<rect x="168" y="246" width="2" height="54" style="fill: #ff60a9;" />
<rect x="170" y="248" width="2" height="52" style="fill: #ff60a9;" />
<rect x="172" y="248" width="2" height="52" style="fill: #ff60a9;" />
<rect x="174" y="248" width="2" height="52" style="fill: #ff60a9;" />
<rect x="176" y="242" width="2" height="58" style="fill: #ff60a9;" />
<rect x="178" y="247" width="2" height="53" style="fill: #ff60a9;" />
<rect x="180" y="246" width="2" height="54" style="fill: #ff60a9;" />
<rect x="182" y="254" width="2" height="46" style="fill: #ff60a9;" />
<rect x="184" y="260" width="2" height="40" style="fill: #ff60a9;" />
<rect x="186" y="254" width="2" height="46" style="fill: #ff60a9;" />
<rect x="188" y="243" width="2" height="57" style="fill: #ff60a9;" />
<rect x="190" y="254" width="2" height="46" style="fill: #ff60a9;" />
<rect x="192" y="252" width="2" height="48" style="fill: #ff60a9;" />
<rect x="194" y="254" width="2" height="46" style="fill: #ff60a9;" />
<rect x="196" y="260" width="2" height="40" style="fill: #ff60a9;" />
<rect x="198" y="256" width="2" height="44" style="fill: #ff60a9;" />
<rect x="200" y="258" width="2" height="42" style="fill: #ff60a9;" />
<rect x="202" y="256" width="2" height="44" style="fill: #ff60a9;" />
<rect x="204" y="260" width="2" height="40" style="fill: #ff60a9;" />
<rect x="206" y="261" width="2" height="39" style="fill: #ff60a9;" />
<rect x="208" y="264" width="2" height="36" style="fill: #ff60a9;" />
<rect x="210" y="254" width="2" height="46" style="fill: #ff60a9;" />
<rect x="212" y="260" width="2" height="40" style="fill: #ff60a9;" />
<rect x="214" y="256" width="2" height="44" style="fill: #ff60a9;" />
<rect x="216" y="268" width="2" height="32" style="fill: #ff60a9;" />
<rect x="218" y="262" width="2" height="38" style="fill: #ff60a9;" />
<rect x="220" y="269" width="2" height="31" style="fill: #ff60a9;" />
<rect x="222" y="268" width="2" height="32" style="fill: #ff60a9;" />
<rect x="224" y="264" width="2" height="36" style="fill: #ff60a9;" />
<rect x="226" y="270" width="2" height="30" style="fill: #ff60a9;" />
<rect x="228" y="268" width="2" height="32" style="fill: #ff60a9;" />
<rect x="230" y="274" width="2" height="26" style="fill: #ff60a9;" />
<rect x="232" y="272" width="2" height="28" style="fill: #ff60a9;" />
<rect x="234" y="266" width="2" height="34" style="fill: #ff60a9;" />
<rect x="236" y="268" width="2" height="32" style="fill: #ff60a9;" />
<rect x="238" y="270" width="2" height="30" style="fill: #ff60a9;" />
<rect x="240" y="276" width="2" height="24" style="fill: #ff60a9;" />
<rect x="242" y="273" width="2" height="27" style="fill: #ff60a9;" />
<rect x="244" y="271" width="2" height="29" style="fill: #ff60a9;" />
<rect x="246" y="274" width="2" height="26" style="fill: #ff60a9;" />
<rect x="248" y="273" width="2" height="27" style="fill: #ff60a9;" />
<rect x="250" y="276" width="2" height="24" style="fill: #ff60a9;" />
<rect x="252" y="274" width="2" height="26" style="fill: #ff60a9;" />
<rect x="254" y="278" width="2" height="22" style="fill: #ff60a9;" />
<rect x="256" y="272" width="2" height="28" style="fill: #ff60a9;" />
<rect x="258" y="277" width="2" height="23" style="fill: #ff60a9;" />
<rect x="260" y="272" width="2" height="28" style="fill: #ff60a9;" />
<rect x="262" y="276" width="2" height="24" style="fill: #ff60a9;" />
<rect x="264" y="278" width="2" height="22" style="fill: #ff60a9;" />
<rect x="266" y="282" width="2" height="18" style="fill: #ff60a9;" />
<rect x="268" y="278" width="2" height="22" style="fill: #ff60a9;" />
<rect x="270" y="278" width="2" height="22" style="fill: #ff60a9;" />
<rect x="272" y="276" width="2" height="24" style="fill: #ff60a9;" />
<rect x="274" y="282" width="2" height="18" style="fill: #ff60a9;" />
<rect x="276" y="281" width="2" height="19" style="fill: #ff60a9;" />
<rect x="278" y="275" width="2" height="25" style="fill: #ff60a9;" />
<rect x="280" y="282" width="2" height="18" style="fill: #ff60a9;" />
<rect x="282" y="282" width="2" height="18" style="fill: #ff60a9;" />
<rect x="284" y="282" width="2" height="18" style="fill: #ff60a9;" />
<rect x="286" y="282" width="2" height="18" style="fill: #ff60a9;" />
<rect x="288" y="285" width="2" height="15" style="fill: #ff60a9;" />
<rect x="290" y="284" width="2" height="16" style="fill: #ff60a9;" />
<rect x="292" y="281" width="2" height="19" style="fill: #ff60a9;" />
<rect x="294" y="282" width="2" height="18" style="fill: #ff60a9;" />
<rect x="296" y="284" width="2" height="16" style="fill: #ff60a9;" />
<rect x="298" y="284" width="2" height="16" style="fill: #ff60a9;" />
<rect x="300" y="283" width="2" height="17" style="fill: #ff60a9;" />
<rect x="302" y="280" width="2" height="20" style="fill: #ff60a9;" />
<rect x="304" y="284" width="2" height="16" style="fill: #ff60a9;" />
<rect x="306" y="288" width="2" height="12" style="fill: #ff60a9;" />
<rect x="308" y="284" width="2" height="16" style="fill: #ff60a9;" />
<rect x="310" y="284" width="2" height="16" style="fill: #ff60a9;" />
<rect x="312" y="284" width="2" height="16" style="fill: #ff60a9;" />
<rect x="314" y="287" width="2" height="13" style="fill: #ff60a9;" />
<rect x="316" y="284" width="2" height="16" style="fill: #ff60a9;" />
<rect x="318" y="287" width="2" height="13" style="fill: #ff60a9;" />
<rect x="320" y="287" width="2" height="13" style="fill: #ff60a9;" />
<rect x="322" y="286" width="2" height="14" style="fill: #ff60a9;" />
<rect x="324" y="284" width="2" height="16" style="fill: #ff60a9;" />
<rect x="326" y="286" width="2" height="14" style="fill: #ff60a9;" />
<rect x="328" y="285" width="2" height="15" style="fill: #ff60a9;" />
<rect x="330" y="287" width="2" height="13" style="fill: #ff60a9;" />
<rect x="332" y="284" width="2" height="16" style="fill: #ff60a9;" />
<rect x="334" y="286" width="2" height="14" style="fill: #ff60a9;" />
<rect x="336" y="286" width="2" height="14" style="fill: #ff60a9;" />
<rect x="338" y="286" width="2" height="14" style="fill: #ff60a9;" />
<rect x="340" y="288" width="2" height="12" style="fill: #ff60a9;" />
<rect x="342" y="288" width="2" height="12" style="fill: #ff60a9;" />
<rect x="344" y="286" width="2" height="14" style="fill: #ff60a9;" />
<rect x="346" y="286" width="2" height="14" style="fill: #ff60a9;" />
<rect x="348" y="290" width="2" height="10" style="fill: #ff60a9;" />
<rect x="350" y="287" width="2" height="13" style="fill: #ff60a9;" />
<rect x="352" y="290" width="2" height="10" style="fill: #ff60a9;" />
<rect x="354" y="289" width="2" height="11" style="fill: #ff60a9;" />
<rect x="356" y="288" width="2" height="12" style="fill: #ff60a9;" />
<rect x="358" y="292" width="2" height="8" style="fill: #ff60a9;" />
<rect x="360" y="290" width="2" height="10" style="fill: #ff60a9;" />
<rect x="362" y="290" width="2" height="10" style="fill: #ff60a9;" />
<rect x="364" y="290" width="2" height="10" style="fill: #ff60a9;" />
<rect x="366" y="292" width="2" height="8" style="fill: #ff60a9;" />
<rect x="368" y="288" width="2" height="12" style="fill: #ff60a9;" />
<rect x="370" y="288" width="2" height="12" style="fill: #ff60a9;" />
<rect x="372" y="290" width="2" height="10" style="fill: #ff60a9;" />
<rect x="374" y="292" width="2" height="8" style="fill: #ff60a9;" />
<rect x="376" y="290" width="2" height="10" style="fill: #ff60a9;" />
<rect x="378" y="288" width="2" height="12" style="fill: #ff60a9;" />
<rect x="380" y="292" width="2" height="8" style="fill: #ff60a9;" />
<rect x="382" y="292" width="2" height="8" style="fill: #ff60a9;" />
<rect x="384" y="288" width="2" height="12" style="fill: #ff60a9;" />
<rect x="386" y="293" width="2" height="7" style="fill: #ff60a9;" />
<rect x="388" y="288" width="2" height="12" style="fill: #ff60a9;" />
<rect x="390" y="294" width="2" height="6" style="fill: #ff60a9;" />
<rect x="392" y="292" width="2" height="8" style="fill: #ff60a9;" />
<rect x="394" y="292" width="2" height="8" style="fill: #ff60a9;" />
<rect x="396" y="292" width="2" height="8" style="fill: #ff60a9;" />
<rect x="398" y="289" width="2" height="11" style="fill: #ff60a9;" />
<rect x="400" y="290" width="2" height="10" style="fill: #ff60a9;" />
<rect x="402" y="293" width="2" height="7" style="fill: #ff60a9;" />
<rect x="404" y="290" width="2" height="10" style="fill: #ff60a9;" />
<rect x="406" y="294" width="2" height="6" style="fill: #ff60a9;" />
<rect x="408" y="292" width="2" height="8" style="fill: #ff60a9;" />
<rect x="410" y="293" width="2" height="7" style="fill: #ff60a9;" />
<rect x="412" y="292" width="2" height="8" style="fill: #ff60a9;" />
<rect x="414" y="294" width="2" height="6" style="fill: #ff60a9;" />
<rect x="416" y="293" width="2" height="7" style="fill: #ff60a9;" />
<rect x="418" y="292" width="2" height="8" style="fill: #ff60a9;" />
<rect x="420" y="291" width="2" height="9" style="fill: #ff60a9;" />
<rect x="422" y="289" width="2" height="11" style="fill: #ff60a9;" />
<rect x="424" y="293" width="2" height="7" style="fill: #ff60a9;" />
<rect x="426" y="293" width="2" height="7" style="fill: #ff60a9;" />
<rect x="428" y="292" width="2" height="8" style="fill: #ff60a9;" />
<rect x="430" y="288" width="2" height="12" style="fill: #ff60a9;" />
<rect x="432" y="292" width="2" height="8" style="fill: #ff60a9;" />
<rect x="434" y="292" width="2" height="8" style="fill: #ff60a9;" />
<rect x="436" y="294" width="2" height="6" style="fill: #ff60a9;" />
<rect x="438" y="292" width="2" height="8" style="fill: #ff60a9;" />
<rect x="440" y="292" width="2" height="8" style="fill: #ff60a9;" />
<rect x="442" y="292" width="2" height="8" style="fill: #ff60a9;" />
<rect x="444" y="295" width="2" height="5" style="fill: #ff60a9;" />
<rect x="446" y="292" width="2" height="8" style="fill: #ff60a9;" />
<rect x="448" y="292" width="2" height="8" style="fill: #ff60a9;" />
<rect x="450" y="295" width="2" height="5" style="fill: #ff60a9;" />
<rect x="452" y="294" width="2" height="6" style="fill: #ff60a9;" />
<rect x="454" y="296" width="2" height="4" style="fill: #ff60a9;" />
<rect x="456" y="297" width="2" height="3" style="fill: #ff60a9;" />
<rect x="458" y="296" width="2" height="4" style="fill: #ff60a9;" />
<rect x="460" y="297" width="2" height="3" style="fill: #ff60a9;" />
<rect x="462" y="297" width="2" height="3" style="fill: #ff60a9;" />
<rect x="464" y="292" width="2" height="8" style="fill: #ff60a9;" />
<rect x="466" y="295" width="2" height="5" style="fill: #ff60a9;" />
<rect x="468" y="296" width="2" height="4" style="fill: #ff60a9;" />
<rect x="470" y="296" width="2" height="4" style="fill: #ff60a9;" />
<rect x="472" y="298" width="2" height="2" style="fill: #ff60a9;" />
<rect x="474" y="296" width="2" height="4" style="fill: #ff60a9;" />
<rect x="476" y="296" width="2" height="4" style="fill: #ff60a9;" />
<rect x="478" y="299" width="2" height="1" style="fill: #ff60a9;" />
<rect x="480" y="294" width="2" height="6" style="fill: #ff60a9;" />
<rect x="482" y="297" width="2" height="3" style="fill: #ff60a9;" />
<rect x="484" y="298" width="2" height="2" style="fill: #ff60a9;" />
<rect x="486" y="297" width="2" height="3" style="fill: #ff60a9;" />
<rect x="488" y="296" width="2" height="4" style="fill: #ff60a9;" />
<rect x="490" y="297" width="2" height="3" style="fill: #ff60a9;" />
<rect x="492" y="296" width="2" height="4" style="fill: #ff60a9;" />
<rect x="494" y="294" width="2" height="6" style="fill: #ff60a9;" />
<rect x="496" y="296" width="2" height="4" style="fill: #ff60a9;" />
<rect x="498" y="296" width="2" height="4" style="fill: #ff60a9;" />
<rect x="500" y="298" width="2" height="2" style="fill: #ff60a9;" />
<rect x="502" y="296" width="2" height="4" style="fill: #ff60a9;" />
<rect x="504" y="296" width="2" height="4" style="fill: #ff60a9;" />
<rect x="506" y="298" width="2" height="2" style="fill: #ff60a9;" />
<rect x="508" y="299" width="2" height="1" style="fill: #ff60a9;" />
<rect x="510" y="296" width="2" height="4" style="fill: #ff60a9;" />
<rect x="512" y="297" width="2" height="3" style="fill: #ff60a9;" />
<rect x="514" y="294" width="2" height="6" style="fill: #ff60a9;" />
<rect x="516" y="298" width="2" height="2" style="fill: #ff60a9;" />
<rect x="518" y="296" width="2" height="4" style="fill: #ff60a9;" />
<rect x="520" y="297" width="2" height="3" style="fill: #ff60a9;" />
<rect x="522" y="294" width="2" height="6" style="fill: #ff60a9;" />
<rect x="524" y="298" width="2" height="2" style="fill: #ff60a9;" />
<rect x="526" y="298" width="2" height="2" style="fill: #ff60a9;" />
<rect x="528" y="298" width="2" height="2" style="fill: #ff60a9;" />
<rect x="530" y="298" width="2" height="2" style="fill: #ff60a9;" />
<rect x="532" y="297" width="2" height="3" style="fill: #ff60a9;" />
<rect x="534" y="298" width="2" height="2" style="fill: #ff60a9;" />
<rect x="536" y="298" width="2" height="2" style="fill: #ff60a9;" />
<rect x="538" y="298" width="2" height="2" style="fill: #ff60a9;" />
<rect x="540" y="297" width="2" height="3" style="fill: #ff60a9;" />
<rect x="542" y="300" width="2" height="0" style="fill: #ff60a9;" />
<rect x="544" y="298" width="2" height="2" style="fill: #ff60a9;" />
<rect x="546" y="298" width="2" height="2" style="fill: #ff60a9;" />
<rect x="548" y="299" width="2" height="1" style="fill: #ff60a9;" />
<rect x="550" y="299" width="2" height="1" style="fill: #ff60a9;" />
<rect x="552" y="298" width="2" height="2" style="fill: #ff60a9;" />
<rect x="554" y="294" width="2" height="6" style="fill: #ff60a9;" />
<rect x="556" y="298" width="2" height="2" style="fill: #ff60a9;" />
<rect x="558" y="298" width="2" height="2" style="fill: #ff60a9;" />
<rect x="560" y="296" width="2" height="4" style="fill: #ff60a9;" />
<rect x="562" y="300" width="2" height="0" style="fill: #ff60a9;" />
<rect x="564" y="298" width="2" height="2" style="fill: #ff60a9;" />
<rect x="566" y="299" width="2" height="1" style="fill: #ff60a9;" />
<rect x="568" y="298" width="2" height="2" style="fill: #ff60a9;" />
<rect x="570" y="297" width="2" height="3" style="fill: #ff60a9;" />
<rect x="572" y="298" width="2" height="2" style="fill: #ff60a9;" />
<rect x="574" y="296" width="2" height="4" style="fill: #ff60a9;" />
<rect x="576" y="298" width="2" height="2" style="fill: #ff60a9;" />
<rect x="578" y="299" width="2" height="1" style="fill: #ff60a9;" />
<rect x="580" y="298" width="2" height="2" style="fill: #ff60a9;" />
<rect x="582" y="298" width="2" height="2" style="fill: #ff60a9;" />
<rect x="584" y="299" width="2" height="1" style="fill: #ff60a9;" />
<rect x="586" y="298" width="2" height="2" style="fill: #ff60a9;" />
<rect x="588" y="298" width="2" height="2" style="fill: #ff60a9;" />
<rect x="590" y="298" width="2" height="2" style="fill: #ff60a9;" />
<rect x="592" y="298" width="2" height="2" style="fill: #ff60a9;" />
<rect x="594" y="298" width="2" height="2" style="fill: #ff60a9;" />
<rect x="596" y="300" width="2" height="0" style="fill: #ff60a9;" />
<rect x="598" y="299" width="2" height="1" style="fill: #ff60a9;" />
<rect x="510" y="150" width="5" height="57" style="fill: #ff60a9;" />
<text text-anchor="start" x="530" y="160" style="font-family: Neue Frutiger 65; font-size: 12; fill: #ff60a9; letter-spacing:0; ">Initial momentums</text>
<text text-anchor="start" x="538" y="175" style="font-family: Neue Frutiger 45; font-size: 12; fill: #ff60a9; letter-spacing:0; ">n = 11172</text>
<text text-anchor="start" x="538" y="190" style="font-family: Neue Frutiger 45; font-size: 12; fill: #ff60a9; letter-spacing:0; ">μ = 390.3848</text>
<text text-anchor="start" x="538" y="205" style="font-family: Neue Frutiger 45; font-size: 12; fill: #ff60a9; letter-spacing:0; ">σ = 3178.9493</text></svg>
